#N canvas 0 95 1920 985 10;
#X obj 223 59 inlet;
#X floatatom 63 153 5 0 0 0 - - -, f 5;
#X obj 63 64 inlet;
#X obj 384 64 r Tolerance;
#X obj 63 250 outlet;
#X obj 63 120 expr if ($f1 <= ($f2+$f3) && $f1 >= ($f2-$f3) \, $f2
\, 0);
#X floatatom 78 94 5 0 0 0 - - -, f 5;
#X obj 63 216 spigot;
#X connect 0 0 5 1;
#X connect 1 0 7 1;
#X connect 1 0 7 0;
#X connect 2 0 5 0;
#X connect 2 0 6 0;
#X connect 3 0 5 2;
#X connect 5 0 1 0;
#X connect 7 0 4 0;
