#N canvas 0 95 1920 985 10;
#X obj 169 108 adc~;
#X obj 1266 30 loadbang;
#X obj 1330 87 s Tolerance;
#X msg 1330 56 7;
#X obj 834 27 r CurrentNote;
#X obj 367 396 r OutputFreq;
#X obj 170 257 delwrite~ \$0-input;
#X obj 1412 75 vsl 15 128 0 1 0 0 empty empty empty 0 -9 0 10 -262144
-1 -1 6350 1;
#X obj 1412 212 s masterVolume;
#X obj 266 578 r masterVolume;
#X obj 367 509 osc~ 440;
#X floatatom 367 431 5 0 0 0 - - -, f 5;
#X obj 1412 30 r load;
#X obj 1266 55 s load;
#X obj 1330 31 r load;
#X obj 218 567 *~;
#X obj 202 428 r load;
#X obj 180 428 bng 15 250 50 0 empty empty empty 17 7 0 10 -262144
-1 -1;
#X obj 202 453 metro 1000;
#X obj 202 517 vline~;
#N canvas 230 173 1440 723 DetectVoicePitch 0;
#X obj 33 102 sigmund~;
#X obj 33 123 mtof;
#X floatatom 33 147 5 0 0 0 - - -, f 5;
#X obj 33 208 f;
#N canvas 0 95 1920 985 DetectPitch 1;
#X obj 32 21 inlet;
#X obj 1585 1493 outlet;
#X obj 32 44 s InputFreq;
#X obj 1585 1465 r OutputFreq;
#X obj 41 855 r InputFreq;
#X msg 62 884 130.813;
#X msg 41 938 C3;
#X obj 86 938 s OutputFreq;
#X obj 41 965 s CurrentNote;
#X obj 123 743 r InputFreq;
#X obj 168 826 s OutputFreq;
#X obj 123 853 s CurrentNote;
#X msg 144 772 138.591;
#X obj 221 858 r InputFreq;
#X obj 266 941 s OutputFreq;
#X obj 221 968 s CurrentNote;
#X msg 242 887 146.832;
#X msg 221 941 D3;
#X obj 306 747 r InputFreq;
#X obj 351 830 s OutputFreq;
#X obj 306 857 s CurrentNote;
#X msg 123 826 C#3;
#X msg 306 830 D#3;
#X msg 327 776 155.563;
#X obj 402 857 r InputFreq;
#X obj 447 940 s OutputFreq;
#X obj 402 967 s CurrentNote;
#X msg 423 886 164.814;
#X msg 402 940 E3;
#X obj 585 854 r InputFreq;
#X obj 630 937 s OutputFreq;
#X obj 585 964 s CurrentNote;
#X msg 585 937 F3;
#X msg 606 883 174.614;
#X obj 667 742 r InputFreq;
#X obj 712 825 s OutputFreq;
#X obj 667 852 s CurrentNote;
#X msg 667 825 F#3;
#X msg 688 771 184.997;
#X obj 759 853 r InputFreq;
#X obj 804 936 s OutputFreq;
#X obj 759 963 s CurrentNote;
#X msg 780 882 195.998;
#X msg 759 936 G3;
#X obj 838 741 r InputFreq;
#X obj 883 824 s OutputFreq;
#X obj 838 851 s CurrentNote;
#X msg 859 770 207.652;
#X msg 838 824 G#3;
#X obj 932 853 r InputFreq;
#X obj 977 936 s OutputFreq;
#X obj 932 963 s CurrentNote;
#X msg 953 882 220;
#X msg 932 936 A3;
#X obj 1011 742 r InputFreq;
#X obj 1056 825 s OutputFreq;
#X obj 1011 852 s CurrentNote;
#X obj 1105 854 r InputFreq;
#X obj 1150 937 s OutputFreq;
#X obj 1105 964 s CurrentNote;
#X msg 1011 825 A#3;
#X msg 1105 937 B3;
#X msg 1032 771 233.082;
#X msg 1126 883 246.942;
#X obj 44 606 r InputFreq;
#X obj 89 689 s OutputFreq;
#X obj 44 716 s CurrentNote;
#X obj 126 494 r InputFreq;
#X obj 171 577 s OutputFreq;
#X obj 126 604 s CurrentNote;
#X obj 224 609 r InputFreq;
#X obj 269 692 s OutputFreq;
#X obj 224 719 s CurrentNote;
#X obj 309 498 r InputFreq;
#X obj 354 581 s OutputFreq;
#X obj 309 608 s CurrentNote;
#X obj 405 608 r InputFreq;
#X obj 450 691 s OutputFreq;
#X obj 405 718 s CurrentNote;
#X obj 582 607 r InputFreq;
#X obj 627 690 s OutputFreq;
#X obj 582 717 s CurrentNote;
#X obj 664 495 r InputFreq;
#X obj 709 578 s OutputFreq;
#X obj 664 605 s CurrentNote;
#X obj 756 606 r InputFreq;
#X obj 801 689 s OutputFreq;
#X obj 756 716 s CurrentNote;
#X obj 835 494 r InputFreq;
#X obj 880 577 s OutputFreq;
#X obj 835 604 s CurrentNote;
#X obj 929 606 r InputFreq;
#X obj 974 689 s OutputFreq;
#X obj 929 716 s CurrentNote;
#X obj 1008 495 r InputFreq;
#X obj 1053 578 s OutputFreq;
#X obj 1008 605 s CurrentNote;
#X obj 1102 607 r InputFreq;
#X obj 1147 690 s OutputFreq;
#X obj 1102 717 s CurrentNote;
#X msg 44 689 C4;
#X msg 224 692 D4;
#X msg 405 691 E4;
#X msg 582 690 F4;
#X msg 756 689 G4;
#X msg 929 689 A4;
#X msg 1102 690 B4;
#X msg 126 577 C#4;
#X msg 309 581 D#4;
#X msg 664 578 F#4;
#X msg 835 577 G#4;
#X msg 1008 578 A#4;
#X msg 65 635 261.626;
#X msg 147 523 277.183;
#X msg 245 638 293.665;
#X msg 330 527 311.127;
#X msg 426 637 329.628;
#X msg 603 636 349.228;
#X msg 685 524 369.994;
#X msg 777 635 391.995;
#X msg 856 523 415.305;
#X msg 950 635 440;
#X msg 1029 524 466.164;
#X msg 1123 636 493.883;
#X obj 48 1110 r InputFreq;
#X obj 93 1193 s OutputFreq;
#X obj 48 1220 s CurrentNote;
#X obj 130 998 r InputFreq;
#X obj 175 1081 s OutputFreq;
#X obj 130 1108 s CurrentNote;
#X obj 228 1113 r InputFreq;
#X obj 273 1196 s OutputFreq;
#X obj 228 1223 s CurrentNote;
#X obj 313 1002 r InputFreq;
#X obj 358 1085 s OutputFreq;
#X obj 313 1112 s CurrentNote;
#X obj 409 1112 r InputFreq;
#X obj 454 1195 s OutputFreq;
#X obj 409 1222 s CurrentNote;
#X obj 585 1115 r InputFreq;
#X obj 630 1198 s OutputFreq;
#X obj 585 1225 s CurrentNote;
#X obj 667 1003 r InputFreq;
#X obj 712 1086 s OutputFreq;
#X obj 667 1113 s CurrentNote;
#X obj 759 1114 r InputFreq;
#X obj 804 1197 s OutputFreq;
#X obj 759 1224 s CurrentNote;
#X obj 838 1002 r InputFreq;
#X obj 883 1085 s OutputFreq;
#X obj 838 1112 s CurrentNote;
#X obj 932 1114 r InputFreq;
#X obj 977 1197 s OutputFreq;
#X obj 932 1224 s CurrentNote;
#X obj 1011 1003 r InputFreq;
#X obj 1056 1086 s OutputFreq;
#X obj 1011 1113 s CurrentNote;
#X obj 1105 1115 r InputFreq;
#X obj 1150 1198 s OutputFreq;
#X obj 1105 1225 s CurrentNote;
#X msg 48 1193 C2;
#X msg 130 1081 C#2;
#X msg 228 1196 D2;
#X msg 313 1085 D#2;
#X msg 409 1195 E2;
#X msg 585 1198 F2;
#X msg 759 1197 G2;
#X msg 667 1086 F#2;
#X msg 838 1085 G#2;
#X msg 932 1197 A2;
#X msg 1011 1086 A#2;
#X msg 1105 1198 B2;
#X msg 69 1139 65.4064;
#X msg 151 1027 69.2957;
#X msg 249 1142 73.4162;
#X msg 334 1031 77.7817;
#X msg 430 1141 82.4069;
#X msg 606 1144 87.3071;
#X msg 688 1032 92.4986;
#X msg 780 1143 97.9989;
#X msg 859 1031 103.826;
#X msg 953 1143 110;
#X msg 1032 1032 116.541;
#X msg 1126 1144 123.471;
#X obj 47 1363 r InputFreq;
#X obj 92 1446 s OutputFreq;
#X obj 47 1473 s CurrentNote;
#X obj 129 1251 r InputFreq;
#X obj 174 1334 s OutputFreq;
#X obj 129 1361 s CurrentNote;
#X obj 227 1366 r InputFreq;
#X obj 272 1449 s OutputFreq;
#X obj 227 1476 s CurrentNote;
#X obj 312 1255 r InputFreq;
#X obj 357 1338 s OutputFreq;
#X obj 312 1365 s CurrentNote;
#X obj 408 1365 r InputFreq;
#X obj 453 1448 s OutputFreq;
#X obj 408 1475 s CurrentNote;
#X obj 582 1366 r InputFreq;
#X obj 627 1449 s OutputFreq;
#X obj 582 1476 s CurrentNote;
#X obj 664 1254 r InputFreq;
#X obj 709 1337 s OutputFreq;
#X obj 664 1364 s CurrentNote;
#X obj 756 1365 r InputFreq;
#X obj 801 1448 s OutputFreq;
#X obj 756 1475 s CurrentNote;
#X obj 835 1253 r InputFreq;
#X obj 880 1336 s OutputFreq;
#X obj 835 1363 s CurrentNote;
#X obj 929 1365 r InputFreq;
#X obj 974 1448 s OutputFreq;
#X obj 929 1475 s CurrentNote;
#X obj 1008 1254 r InputFreq;
#X obj 1053 1337 s OutputFreq;
#X obj 1008 1364 s CurrentNote;
#X obj 1102 1366 r InputFreq;
#X obj 1147 1449 s OutputFreq;
#X obj 1102 1476 s CurrentNote;
#X msg 47 1446 C1;
#X msg 129 1334 C#1;
#X msg 227 1449 D1;
#X msg 312 1338 D#1;
#X msg 408 1448 E1;
#X msg 582 1449 F1;
#X msg 664 1337 F#1;
#X msg 756 1448 G1;
#X msg 835 1336 G#1;
#X msg 929 1448 A1;
#X msg 1008 1337 A#1;
#X msg 1102 1449 B1;
#X msg 68 1392 32.7032;
#X msg 150 1280 34.6478;
#X msg 248 1395 36.7081;
#X msg 333 1284 38.8909;
#X msg 429 1394 41.2034;
#X msg 603 1395 43.6535;
#X msg 685 1283 46.2493;
#X msg 777 1394 48.9994;
#X msg 856 1282 51.9131;
#X msg 950 1394 55;
#X msg 1029 1283 58.2705;
#X msg 1123 1395 61.7354;
#X obj 48 358 r InputFreq;
#X obj 93 441 s OutputFreq;
#X obj 48 468 s CurrentNote;
#X obj 130 246 r InputFreq;
#X obj 175 329 s OutputFreq;
#X obj 130 356 s CurrentNote;
#X obj 228 361 r InputFreq;
#X obj 273 444 s OutputFreq;
#X obj 228 471 s CurrentNote;
#X obj 313 250 r InputFreq;
#X obj 358 333 s OutputFreq;
#X obj 313 360 s CurrentNote;
#X obj 409 360 r InputFreq;
#X obj 454 443 s OutputFreq;
#X obj 409 470 s CurrentNote;
#X obj 586 359 r InputFreq;
#X obj 631 442 s OutputFreq;
#X obj 586 469 s CurrentNote;
#X obj 668 247 r InputFreq;
#X obj 713 330 s OutputFreq;
#X obj 668 357 s CurrentNote;
#X obj 760 358 r InputFreq;
#X obj 805 441 s OutputFreq;
#X obj 760 468 s CurrentNote;
#X obj 839 246 r InputFreq;
#X obj 884 329 s OutputFreq;
#X obj 839 356 s CurrentNote;
#X obj 933 358 r InputFreq;
#X obj 978 441 s OutputFreq;
#X obj 933 468 s CurrentNote;
#X obj 1012 247 r InputFreq;
#X obj 1057 330 s OutputFreq;
#X obj 1012 357 s CurrentNote;
#X obj 1106 359 r InputFreq;
#X obj 1151 442 s OutputFreq;
#X obj 1106 469 s CurrentNote;
#X msg 48 441 C5;
#X msg 228 444 D5;
#X msg 409 443 E5;
#X msg 586 442 F5;
#X msg 760 441 G5;
#X msg 933 441 A5;
#X msg 1106 442 B5;
#X msg 130 329 C#5;
#X msg 313 333 D#5;
#X msg 668 330 F#5;
#X msg 839 329 G#5;
#X msg 1012 330 A#5;
#X msg 69 387 523.251;
#X msg 151 275 554.365;
#X msg 249 390 587.33;
#X msg 334 279 622.254;
#X msg 430 389 659.255;
#X msg 607 388 698.456;
#X msg 689 276 739.989;
#X msg 781 387 783.991;
#X msg 860 275 830.609;
#X msg 954 387 880;
#X msg 1033 276 932.328;
#X msg 1127 388 987.767;
#X obj 130 302 calcFreq;
#X obj 582 663 calcFreq;
#X obj 405 664 calcFreq;
#X obj 48 414 calcFreq;
#X obj 41 911 calcFreq;
#X obj 123 799 calcFreq;
#X obj 221 914 calcFreq;
#X obj 306 803 calcFreq;
#X obj 402 913 calcFreq;
#X obj 585 910 calcFreq;
#X obj 667 798 calcFreq;
#X obj 759 909 calcFreq;
#X obj 838 797 calcFreq;
#X obj 932 909 calcFreq;
#X obj 1011 798 calcFreq;
#X obj 1105 910 calcFreq;
#X obj 44 662 calcFreq;
#X obj 126 550 calcFreq;
#X obj 224 665 calcFreq;
#X obj 309 554 calcFreq;
#X obj 664 551 calcFreq;
#X obj 756 662 calcFreq;
#X obj 835 550 calcFreq;
#X obj 929 662 calcFreq;
#X obj 1008 551 calcFreq;
#X obj 1102 663 calcFreq;
#X obj 48 1166 calcFreq;
#X obj 130 1054 calcFreq;
#X obj 228 1169 calcFreq;
#X obj 313 1058 calcFreq;
#X obj 409 1168 calcFreq;
#X obj 585 1171 calcFreq;
#X obj 667 1059 calcFreq;
#X obj 759 1170 calcFreq;
#X obj 838 1058 calcFreq;
#X obj 932 1170 calcFreq;
#X obj 1011 1059 calcFreq;
#X obj 1105 1171 calcFreq;
#X obj 47 1419 calcFreq;
#X obj 129 1307 calcFreq;
#X obj 227 1422 calcFreq;
#X obj 312 1311 calcFreq;
#X obj 408 1421 calcFreq;
#X obj 582 1422 calcFreq;
#X obj 664 1310 calcFreq;
#X obj 756 1421 calcFreq;
#X obj 835 1309 calcFreq;
#X obj 929 1421 calcFreq;
#X obj 1008 1310 calcFreq;
#X obj 1102 1422 calcFreq;
#X obj 228 417 calcFreq;
#X obj 313 306 calcFreq;
#X obj 409 416 calcFreq;
#X obj 586 415 calcFreq;
#X obj 668 303 calcFreq;
#X obj 760 414 calcFreq;
#X obj 839 302 calcFreq;
#X obj 933 414 calcFreq;
#X obj 1012 303 calcFreq;
#X obj 1106 415 calcFreq;
#X text 151 31 This subpatch takes the voice frequency as an input
and determines what the closes tone of the voice is;
#X obj 132 1419 s MidiNumber;
#X msg 103 1419 12;
#X obj 310 1422 s MidiNumber;
#X msg 282 1422 14;
#X obj 215 1308 s MidiNumber;
#X msg 185 1308 13;
#X obj 396 1313 s MidiNumber;
#X msg 367 1312 15;
#X obj 493 1422 s MidiNumber;
#X msg 465 1422 16;
#X obj 668 1423 s MidiNumber;
#X msg 640 1423 17;
#X obj 749 1310 s MidiNumber;
#X msg 721 1310 18;
#X obj 842 1421 s MidiNumber;
#X msg 814 1421 19;
#X obj 919 1309 s MidiNumber;
#X msg 891 1309 20;
#X obj 1013 1421 s MidiNumber;
#X msg 985 1422 21;
#X obj 1094 1311 s MidiNumber;
#X msg 1066 1311 22;
#X obj 1188 1423 s MidiNumber;
#X msg 1160 1423 23;
#X obj 133 1166 s MidiNumber;
#X obj 311 1169 s MidiNumber;
#X obj 216 1055 s MidiNumber;
#X obj 397 1060 s MidiNumber;
#X obj 494 1169 s MidiNumber;
#X obj 669 1170 s MidiNumber;
#X obj 750 1057 s MidiNumber;
#X obj 843 1168 s MidiNumber;
#X obj 920 1056 s MidiNumber;
#X obj 1014 1168 s MidiNumber;
#X obj 1095 1058 s MidiNumber;
#X obj 1189 1170 s MidiNumber;
#X msg 105 1165 24;
#X msg 186 1055 25;
#X msg 283 1169 26;
#X msg 368 1059 27;
#X msg 466 1169 28;
#X msg 641 1170 29;
#X msg 722 1057 30;
#X msg 815 1168 31;
#X msg 892 1056 32;
#X msg 986 1169 33;
#X msg 1067 1058 34;
#X msg 1161 1170 35;
#X obj 132 910 s MidiNumber;
#X obj 310 913 s MidiNumber;
#X obj 215 799 s MidiNumber;
#X obj 396 804 s MidiNumber;
#X obj 493 913 s MidiNumber;
#X obj 668 914 s MidiNumber;
#X obj 749 801 s MidiNumber;
#X obj 842 912 s MidiNumber;
#X obj 919 800 s MidiNumber;
#X obj 1013 912 s MidiNumber;
#X obj 1094 802 s MidiNumber;
#X obj 1188 914 s MidiNumber;
#X msg 104 909 36;
#X msg 185 799 37;
#X msg 282 913 38;
#X msg 367 803 39;
#X msg 465 914 40;
#X msg 640 914 41;
#X msg 721 801 42;
#X msg 814 912 43;
#X msg 891 800 44;
#X msg 985 913 45;
#X msg 1066 802 46;
#X msg 1160 914 47;
#X obj 132 660 s MidiNumber;
#X obj 310 663 s MidiNumber;
#X obj 215 549 s MidiNumber;
#X obj 396 554 s MidiNumber;
#X obj 493 663 s MidiNumber;
#X obj 668 664 s MidiNumber;
#X obj 749 551 s MidiNumber;
#X obj 842 662 s MidiNumber;
#X obj 919 550 s MidiNumber;
#X obj 1013 662 s MidiNumber;
#X obj 1094 552 s MidiNumber;
#X obj 1188 664 s MidiNumber;
#X msg 103 660 48;
#X msg 185 549 49;
#X msg 282 663 50;
#X msg 367 553 51;
#X msg 465 663 52;
#X msg 640 664 53;
#X msg 721 551 54;
#X msg 814 662 55;
#X msg 891 550 56;
#X msg 985 663 57;
#X msg 1066 552 58;
#X msg 1160 664 59;
#X obj 135 413 s MidiNumber;
#X obj 313 416 s MidiNumber;
#X obj 218 302 s MidiNumber;
#X obj 399 307 s MidiNumber;
#X obj 496 416 s MidiNumber;
#X obj 671 417 s MidiNumber;
#X obj 752 304 s MidiNumber;
#X obj 845 415 s MidiNumber;
#X obj 922 303 s MidiNumber;
#X obj 1016 415 s MidiNumber;
#X obj 1097 305 s MidiNumber;
#X obj 1191 417 s MidiNumber;
#X msg 106 413 60;
#X msg 188 302 61;
#X msg 285 416 62;
#X msg 370 306 63;
#X msg 468 416 64;
#X msg 643 417 65;
#X msg 724 304 66;
#X msg 816 415 67;
#X msg 894 303 68;
#X msg 988 416 69;
#X msg 1069 305 70;
#X msg 1163 417 71;
#X connect 0 0 2 0;
#X connect 3 0 1 0;
#X connect 4 0 5 0;
#X connect 4 0 308 0;
#X connect 5 0 308 1;
#X connect 6 0 8 0;
#X connect 9 0 12 0;
#X connect 9 0 309 0;
#X connect 12 0 309 1;
#X connect 13 0 16 0;
#X connect 13 0 310 0;
#X connect 16 0 310 1;
#X connect 17 0 15 0;
#X connect 18 0 23 0;
#X connect 18 0 311 0;
#X connect 21 0 11 0;
#X connect 22 0 20 0;
#X connect 23 0 311 1;
#X connect 24 0 27 0;
#X connect 24 0 312 0;
#X connect 27 0 312 1;
#X connect 28 0 26 0;
#X connect 29 0 33 0;
#X connect 29 0 313 0;
#X connect 32 0 31 0;
#X connect 33 0 313 1;
#X connect 34 0 38 0;
#X connect 34 0 314 0;
#X connect 37 0 36 0;
#X connect 38 0 314 1;
#X connect 39 0 42 0;
#X connect 39 0 315 0;
#X connect 42 0 315 1;
#X connect 43 0 41 0;
#X connect 44 0 47 0;
#X connect 44 0 316 0;
#X connect 47 0 316 1;
#X connect 48 0 46 0;
#X connect 49 0 52 0;
#X connect 49 0 317 0;
#X connect 52 0 317 1;
#X connect 53 0 51 0;
#X connect 54 0 62 0;
#X connect 54 0 318 0;
#X connect 57 0 63 0;
#X connect 57 0 319 0;
#X connect 60 0 56 0;
#X connect 61 0 59 0;
#X connect 62 0 318 1;
#X connect 63 0 319 1;
#X connect 64 0 112 0;
#X connect 64 0 320 0;
#X connect 67 0 113 0;
#X connect 67 0 321 0;
#X connect 70 0 114 0;
#X connect 70 0 322 0;
#X connect 73 0 115 0;
#X connect 73 0 323 0;
#X connect 76 0 116 0;
#X connect 76 0 306 0;
#X connect 79 0 117 0;
#X connect 79 0 305 0;
#X connect 82 0 118 0;
#X connect 82 0 324 0;
#X connect 85 0 119 0;
#X connect 85 0 325 0;
#X connect 88 0 120 0;
#X connect 88 0 326 0;
#X connect 91 0 121 0;
#X connect 91 0 327 0;
#X connect 94 0 122 0;
#X connect 94 0 328 0;
#X connect 97 0 123 0;
#X connect 97 0 329 0;
#X connect 100 0 66 0;
#X connect 101 0 72 0;
#X connect 102 0 78 0;
#X connect 103 0 81 0;
#X connect 104 0 87 0;
#X connect 105 0 93 0;
#X connect 106 0 99 0;
#X connect 107 0 69 0;
#X connect 108 0 75 0;
#X connect 109 0 84 0;
#X connect 110 0 90 0;
#X connect 111 0 96 0;
#X connect 112 0 320 1;
#X connect 113 0 321 1;
#X connect 114 0 322 1;
#X connect 115 0 323 1;
#X connect 116 0 306 1;
#X connect 117 0 305 1;
#X connect 118 0 324 1;
#X connect 119 0 325 1;
#X connect 120 0 326 1;
#X connect 121 0 327 1;
#X connect 122 0 328 1;
#X connect 123 0 329 1;
#X connect 124 0 172 0;
#X connect 124 0 330 0;
#X connect 127 0 173 0;
#X connect 127 0 331 0;
#X connect 130 0 174 0;
#X connect 130 0 332 0;
#X connect 133 0 175 0;
#X connect 133 0 333 0;
#X connect 136 0 176 0;
#X connect 136 0 334 0;
#X connect 139 0 177 0;
#X connect 139 0 335 0;
#X connect 142 0 178 0;
#X connect 142 0 336 0;
#X connect 145 0 179 0;
#X connect 145 0 337 0;
#X connect 148 0 180 0;
#X connect 148 0 338 0;
#X connect 151 0 181 0;
#X connect 151 0 339 0;
#X connect 154 0 182 0;
#X connect 154 0 340 0;
#X connect 157 0 183 0;
#X connect 157 0 341 0;
#X connect 160 0 126 0;
#X connect 161 0 129 0;
#X connect 162 0 132 0;
#X connect 163 0 135 0;
#X connect 164 0 138 0;
#X connect 165 0 141 0;
#X connect 166 0 147 0;
#X connect 167 0 144 0;
#X connect 168 0 150 0;
#X connect 169 0 153 0;
#X connect 170 0 156 0;
#X connect 171 0 159 0;
#X connect 172 0 330 1;
#X connect 173 0 331 1;
#X connect 174 0 332 1;
#X connect 175 0 333 1;
#X connect 176 0 334 1;
#X connect 177 0 335 1;
#X connect 178 0 336 1;
#X connect 179 0 337 1;
#X connect 180 0 338 1;
#X connect 181 0 339 1;
#X connect 182 0 340 1;
#X connect 183 0 341 1;
#X connect 184 0 232 0;
#X connect 184 0 342 0;
#X connect 187 0 233 0;
#X connect 187 0 343 0;
#X connect 190 0 234 0;
#X connect 190 0 344 0;
#X connect 193 0 235 0;
#X connect 193 0 345 0;
#X connect 196 0 236 0;
#X connect 196 0 346 0;
#X connect 199 0 237 0;
#X connect 199 0 347 0;
#X connect 202 0 238 0;
#X connect 202 0 348 0;
#X connect 205 0 239 0;
#X connect 205 0 349 0;
#X connect 208 0 240 0;
#X connect 208 0 350 0;
#X connect 211 0 241 0;
#X connect 211 0 351 0;
#X connect 214 0 242 0;
#X connect 214 0 352 0;
#X connect 217 0 243 0;
#X connect 217 0 353 0;
#X connect 220 0 186 0;
#X connect 221 0 189 0;
#X connect 222 0 192 0;
#X connect 223 0 195 0;
#X connect 224 0 198 0;
#X connect 225 0 201 0;
#X connect 226 0 204 0;
#X connect 227 0 207 0;
#X connect 228 0 210 0;
#X connect 229 0 213 0;
#X connect 230 0 216 0;
#X connect 231 0 219 0;
#X connect 232 0 342 1;
#X connect 233 0 343 1;
#X connect 234 0 344 1;
#X connect 235 0 345 1;
#X connect 236 0 346 1;
#X connect 237 0 347 1;
#X connect 238 0 348 1;
#X connect 239 0 349 1;
#X connect 240 0 350 1;
#X connect 241 0 351 1;
#X connect 242 0 352 1;
#X connect 243 0 353 1;
#X connect 244 0 292 0;
#X connect 244 0 307 0;
#X connect 247 0 293 0;
#X connect 247 0 304 0;
#X connect 250 0 294 0;
#X connect 250 0 354 0;
#X connect 253 0 295 0;
#X connect 253 0 355 0;
#X connect 256 0 296 0;
#X connect 256 0 356 0;
#X connect 259 0 297 0;
#X connect 259 0 357 0;
#X connect 262 0 298 0;
#X connect 262 0 358 0;
#X connect 265 0 299 0;
#X connect 265 0 359 0;
#X connect 268 0 300 0;
#X connect 268 0 360 0;
#X connect 271 0 301 0;
#X connect 271 0 361 0;
#X connect 274 0 302 0;
#X connect 274 0 362 0;
#X connect 277 0 303 0;
#X connect 277 0 363 0;
#X connect 280 0 246 0;
#X connect 281 0 252 0;
#X connect 282 0 258 0;
#X connect 283 0 261 0;
#X connect 284 0 267 0;
#X connect 285 0 273 0;
#X connect 286 0 279 0;
#X connect 287 0 249 0;
#X connect 288 0 255 0;
#X connect 289 0 264 0;
#X connect 290 0 270 0;
#X connect 291 0 276 0;
#X connect 292 0 307 1;
#X connect 293 0 304 1;
#X connect 294 0 354 1;
#X connect 295 0 355 1;
#X connect 296 0 356 1;
#X connect 297 0 357 1;
#X connect 298 0 358 1;
#X connect 299 0 359 1;
#X connect 300 0 360 1;
#X connect 301 0 361 1;
#X connect 302 0 362 1;
#X connect 303 0 363 1;
#X connect 304 0 287 0;
#X connect 304 0 248 0;
#X connect 304 0 474 0;
#X connect 305 0 103 0;
#X connect 305 0 80 0;
#X connect 305 0 454 0;
#X connect 306 0 102 0;
#X connect 306 0 77 0;
#X connect 306 0 453 0;
#X connect 307 0 280 0;
#X connect 307 0 245 0;
#X connect 307 0 473 0;
#X connect 308 0 6 0;
#X connect 308 0 7 0;
#X connect 308 0 425 0;
#X connect 309 0 21 0;
#X connect 309 0 10 0;
#X connect 309 0 426 0;
#X connect 310 0 17 0;
#X connect 310 0 14 0;
#X connect 310 0 427 0;
#X connect 311 0 22 0;
#X connect 311 0 19 0;
#X connect 311 0 428 0;
#X connect 312 0 28 0;
#X connect 312 0 25 0;
#X connect 312 0 429 0;
#X connect 313 0 32 0;
#X connect 313 0 30 0;
#X connect 313 0 430 0;
#X connect 314 0 37 0;
#X connect 314 0 35 0;
#X connect 314 0 431 0;
#X connect 315 0 43 0;
#X connect 315 0 40 0;
#X connect 315 0 432 0;
#X connect 316 0 48 0;
#X connect 316 0 45 0;
#X connect 316 0 433 0;
#X connect 317 0 53 0;
#X connect 317 0 50 0;
#X connect 317 0 434 0;
#X connect 318 0 60 0;
#X connect 318 0 55 0;
#X connect 318 0 435 0;
#X connect 319 0 61 0;
#X connect 319 0 58 0;
#X connect 319 0 436 0;
#X connect 320 0 100 0;
#X connect 320 0 65 0;
#X connect 320 0 449 0;
#X connect 321 0 107 0;
#X connect 321 0 68 0;
#X connect 321 0 450 0;
#X connect 322 0 101 0;
#X connect 322 0 71 0;
#X connect 322 0 451 0;
#X connect 323 0 108 0;
#X connect 323 0 74 0;
#X connect 323 0 452 0;
#X connect 324 0 109 0;
#X connect 324 0 83 0;
#X connect 324 0 455 0;
#X connect 325 0 104 0;
#X connect 325 0 86 0;
#X connect 325 0 456 0;
#X connect 326 0 110 0;
#X connect 326 0 89 0;
#X connect 326 0 457 0;
#X connect 327 0 105 0;
#X connect 327 0 92 0;
#X connect 327 0 458 0;
#X connect 328 0 111 0;
#X connect 328 0 95 0;
#X connect 328 0 459 0;
#X connect 329 0 106 0;
#X connect 329 0 98 0;
#X connect 329 0 460 0;
#X connect 330 0 160 0;
#X connect 330 0 125 0;
#X connect 330 0 401 0;
#X connect 331 0 161 0;
#X connect 331 0 128 0;
#X connect 331 0 402 0;
#X connect 332 0 162 0;
#X connect 332 0 131 0;
#X connect 332 0 403 0;
#X connect 333 0 163 0;
#X connect 333 0 134 0;
#X connect 333 0 404 0;
#X connect 334 0 164 0;
#X connect 334 0 137 0;
#X connect 334 0 405 0;
#X connect 335 0 165 0;
#X connect 335 0 140 0;
#X connect 335 0 406 0;
#X connect 336 0 167 0;
#X connect 336 0 143 0;
#X connect 336 0 407 0;
#X connect 337 0 166 0;
#X connect 337 0 146 0;
#X connect 337 0 408 0;
#X connect 338 0 168 0;
#X connect 338 0 149 0;
#X connect 338 0 409 0;
#X connect 339 0 169 0;
#X connect 339 0 152 0;
#X connect 339 0 410 0;
#X connect 340 0 170 0;
#X connect 340 0 155 0;
#X connect 340 0 411 0;
#X connect 341 0 171 0;
#X connect 341 0 158 0;
#X connect 341 0 412 0;
#X connect 342 0 220 0;
#X connect 342 0 185 0;
#X connect 342 0 366 0;
#X connect 343 0 221 0;
#X connect 343 0 188 0;
#X connect 343 0 370 0;
#X connect 344 0 222 0;
#X connect 344 0 191 0;
#X connect 344 0 368 0;
#X connect 345 0 223 0;
#X connect 345 0 194 0;
#X connect 345 0 372 0;
#X connect 346 0 224 0;
#X connect 346 0 197 0;
#X connect 346 0 374 0;
#X connect 347 0 225 0;
#X connect 347 0 200 0;
#X connect 347 0 376 0;
#X connect 348 0 226 0;
#X connect 348 0 203 0;
#X connect 348 0 378 0;
#X connect 349 0 227 0;
#X connect 349 0 206 0;
#X connect 349 0 380 0;
#X connect 350 0 228 0;
#X connect 350 0 209 0;
#X connect 350 0 382 0;
#X connect 351 0 229 0;
#X connect 351 0 212 0;
#X connect 351 0 384 0;
#X connect 352 0 230 0;
#X connect 352 0 215 0;
#X connect 352 0 386 0;
#X connect 353 0 231 0;
#X connect 353 0 218 0;
#X connect 353 0 388 0;
#X connect 354 0 281 0;
#X connect 354 0 251 0;
#X connect 354 0 475 0;
#X connect 355 0 288 0;
#X connect 355 0 254 0;
#X connect 355 0 476 0;
#X connect 356 0 282 0;
#X connect 356 0 257 0;
#X connect 356 0 477 0;
#X connect 357 0 283 0;
#X connect 357 0 260 0;
#X connect 357 0 478 0;
#X connect 358 0 289 0;
#X connect 358 0 263 0;
#X connect 358 0 479 0;
#X connect 359 0 284 0;
#X connect 359 0 266 0;
#X connect 359 0 480 0;
#X connect 360 0 290 0;
#X connect 360 0 269 0;
#X connect 360 0 481 0;
#X connect 361 0 285 0;
#X connect 361 0 272 0;
#X connect 361 0 482 0;
#X connect 362 0 291 0;
#X connect 362 0 275 0;
#X connect 362 0 483 0;
#X connect 363 0 286 0;
#X connect 363 0 278 0;
#X connect 363 0 484 0;
#X connect 366 0 365 0;
#X connect 368 0 367 0;
#X connect 370 0 369 0;
#X connect 372 0 371 0;
#X connect 374 0 373 0;
#X connect 376 0 375 0;
#X connect 378 0 377 0;
#X connect 380 0 379 0;
#X connect 382 0 381 0;
#X connect 384 0 383 0;
#X connect 386 0 385 0;
#X connect 388 0 387 0;
#X connect 401 0 389 0;
#X connect 402 0 391 0;
#X connect 403 0 390 0;
#X connect 404 0 392 0;
#X connect 405 0 393 0;
#X connect 406 0 394 0;
#X connect 407 0 395 0;
#X connect 408 0 396 0;
#X connect 409 0 397 0;
#X connect 410 0 398 0;
#X connect 411 0 399 0;
#X connect 412 0 400 0;
#X connect 425 0 413 0;
#X connect 426 0 415 0;
#X connect 427 0 414 0;
#X connect 428 0 416 0;
#X connect 429 0 417 0;
#X connect 430 0 418 0;
#X connect 431 0 419 0;
#X connect 432 0 420 0;
#X connect 433 0 421 0;
#X connect 434 0 422 0;
#X connect 435 0 423 0;
#X connect 436 0 424 0;
#X connect 449 0 437 0;
#X connect 450 0 439 0;
#X connect 451 0 438 0;
#X connect 452 0 440 0;
#X connect 453 0 441 0;
#X connect 454 0 442 0;
#X connect 455 0 443 0;
#X connect 456 0 444 0;
#X connect 457 0 445 0;
#X connect 458 0 446 0;
#X connect 459 0 447 0;
#X connect 460 0 448 0;
#X connect 473 0 461 0;
#X connect 474 0 463 0;
#X connect 475 0 462 0;
#X connect 476 0 464 0;
#X connect 477 0 465 0;
#X connect 478 0 466 0;
#X connect 479 0 467 0;
#X connect 480 0 468 0;
#X connect 481 0 469 0;
#X connect 482 0 470 0;
#X connect 483 0 471 0;
#X connect 484 0 472 0;
#X restore 33 232 pd DetectPitch;
#X obj 33 35 vd~ \$0-input;
#X text 129 26 This subpatch takes the voice input and sends the voices'
frequency to the pitch detector;
#X obj 136 189 s stop;
#X obj 75 164 moses 10;
#X obj 136 163 s start;
#X text 183 172 Starts and Stops the playback if there is sound coming
in or not;
#X connect 0 0 1 0;
#X connect 1 0 2 0;
#X connect 2 0 3 0;
#X connect 2 0 8 0;
#X connect 3 0 4 0;
#X connect 5 0 0 0;
#X connect 8 0 7 0;
#X connect 8 1 9 0;
#X restore 169 313 pd DetectVoicePitch;
#X msg 259 429 0;
#X obj 259 405 r stop;
#X obj 180 404 r start;
#X obj 185 134 *~ 10;
#X msg 185 194 1, f 6;
#X obj 169 224 *~;
#X msg 237 194 0;
#X obj 185 167 threshold~ 2 100 6 100;
#X text 330 168 Input threshold to remove noice;
#X msg 202 483 1 20 \, 0 200 500;
#N canvas 240 181 1440 723 visuals 1;
#X obj 145 319 tabwrite~ waveform;
#N canvas 0 50 450 250 (subpatch) 0;
#X array waveform 1000 float 1;
#A 0 0 0 0 0 0 0 0 0 0 0 0 0 0 0 0 0 0 0 0 0 0 0 0 0 0 0 0 0 0 0 0
0 0 0 0 0 0 0 0 0 0 0 0 0 0 0 0 0 0 0 0 0 0 0 0 0 0 0 0 0 0 0 0 0 0
0 0 0 0 0 0 0 0 0 0 0 0 0 0 0 0 0 0 0 0 0 0 0 0 0 0 0 0 0 0 0 0 0 0
0 0 0 0 0 0 0 0 0 0 0 0 0 0 0 0 0 0 0 0 0 0 0 0 0 0 0 0 0 0 0 0 0 0
0 0 0 0 0 0 0 0 0 0 0 0 0 0 0 0 0 0 0 0 0 0 0 0 0 0 0 0 0 0 0 0 0 0
0 0 0 0 0 0 0 0 0 0 0 0 0 0 0 0 0 0 0 0 0 0 0 0 0 0 0 0 0 0 0 0 0 0
0 0 0 0 0 0 0 0 0 0 0 0 0 0 0 0 0 0 0 0 0 0 0 0 0 0 0 0 0 0 0 0 0 0
0 0 0 0 0 0 0 0 0 0 0 0 0 0 0 0 0 0 0 0 0 0 0 0 0 0 0 0 0 0 0 0 0 0
0 0 0 0 0 0 0 0 0 0 0 0 0 0 0 0 0 0 0 0 0 0 0 0 0 0 0 0 0 0 0 0 0 0
0 0 0 0 0 0 0 0 0 0 0 0 0 0 0 0 0 0 0 0 0 0 0 0 0 0 0 0 0 0 0 0 0 0
0 0 0 0 0 0 0 0 0 0 0 0 0 0 0 0 0 0 0 0 0 0 0 0 0 0 0 0 0 0 0 0 0 0
0 0 0 0 0 0 0 0 0 0 0 0 0 0 0 0 0 0 0 0 0 0 0 0 0 0 0 0 0 0 0 0 0 0
0 0 0 0 0 0 0 0 0 0 0 0 0 0 0 0 0 0 0 0 0 0 0 0 0 0 0 0 0 0 0 0 0 0
0 0 0 0 0 0 0 0 0 0 0 0 0 0 0 0 0 0 0 0 0 0 0 0 0 0 0 0 0 0 0 0 0 0
0 0 0 0 0 0 0 0 0 0 0 0 0 0 0 0 0 0 0 0 0 0 0 0 0 0 0 0 0 0 0 0 0 0
0 0 0 0 0 0 0 0 0 0 0 0 0 0 0 0 0 0 0 0 0 0 0 0 0 0 0 0 0 0 0 0 0 0
0 0 0 0 0 0 0 0 0 0 0 0 0 0 0 0 0 0 0 0 0 0 0 0 0 0 0 0 0 0 0 0 0 0
0 0 0 0 0 0 0 0 0 0 0 0 0 0 0 0 0 0 0 0 0 0 0 0 0 0 0 0 0 0 0 0 0 0
0 0 0 0 0 0 0 0 0 0 0 0 0 0 0 0 0 0 0 0 0 0 0 0 0 0 0 0 0 0 0 0 0 0
0 0 0 0 0 0 0 0 0 0 0 0 0 0 0 0 0 0 0 0 0 0 0 0 0 0 0 0 0 0 0 0 0 0
0 0 0 0 0 0 0 0 0 0 0 0 0 0 0 0 0 0 0 0 0 0 0 0 0 0 0 0 0 0 0 0 0 0
0 0 0 0 0 0 0 0 0 0 0 0 0 0 0 0 0 0 0 0 0 0 0 0 0 0 0 0 0 0 0 0 0 0
0 0 0 0 0 0 0 0 0 0 0 0 0 0 0 0 0 0 0 0 0 0 0 0 0 0 0 0 0 0 0 0 0 0
0 0 0 0 0 0 0 0 0 0 0 0 0 0 0 0 0 0 0 0 0 0 0 0 0 0 0 0 0 0 0 0 0 0
0 0 0 0 0 0 0 0 0 0 0 0 0 0 0 0 0 0 0 0 0 0 0 0 0 0 0 0 0 0 0 0 0 0
0 0 0 0 0 0 0 0 0 0 0 0 0 0 0 0 0 0 0 0 0 0 0 0 0 0 0 0 0 0 0 0 0 0
0 0 0 0 0 0 0 0 0 0 0 0 0 0 0 0 0 0 0 0 0 0 0 0 0 0 0 0 0 0 0 0 0 0
0 0 0 0 0 0 0 0 0 0 0 0 0 0 0 0 0 0 0 0 0 0 0 0 0 0 0 0 0 0 0 0 0 0
0 0 0 0 0 0 0 0 0 0 0 0 0 0 0 0 0 0 0 0 0 0 0 0 0 0 0 0 0 0 0 0 0 0
0 0 0 0 0 0 0 0 0 0 0 0 0 0 0 0 0;
#X coords 0 1.2 1000 -1.2 1000 500 1 0 0;
#X restore 69 365 graph;
#X obj 145 237 r load;
#X obj 145 265 tgl 15 0 empty empty empty 17 7 0 10 -262144 -1 -1 1
1;
#X obj 37 29 inlet~;
#X obj 145 292 metro 250;
#X connect 2 0 3 0;
#X connect 3 0 5 0;
#X connect 4 0 0 0;
#X connect 5 0 0 0;
#X restore 236 673 pd visuals;
#X obj 673 223 vsl 15 128 0 10 0 0 empty empty empty 0 -9 0 10 -262144
-1 -1 0 1;
#X floatatom 673 367 5 0 0 0 - - -, f 5;
#X obj 673 391 osc~;
#X obj 673 435 *~;
#X obj 367 470 +~;
#X floatatom 712 392 5 0 0 0 - - -, f 5;
#X text 403 431 Outputs the closest detetected frequency;
#X obj 712 224 vsl 15 128 0 127 0 0 empty empty empty 0 -9 0 10 -262144
-1 -1 0 1;
#X obj 679 179 r load;
#X msg 688 200 0;
#X msg 1065 57 \; pd dsp \$1;
#X obj 1065 29 tgl 15 0 empty empty empty 17 7 0 10 -262144 -1 -1 1
1;
#X text 1086 27 Turn on DSP;
#X obj 1414 285 vu 15 120 empty empty -1 -8 0 10 -66577 -1 1 0;
#X obj 1479 285 vu 15 120 empty empty -1 -8 0 10 -66577 -1 1 0;
#X obj 363 568 *~;
#X obj 239 897 dac~ 1 2;
#X obj 169 667 env~;
#X obj 169 691 - 100;
#X obj 169 715 s toLVU;
#X obj 477 671 env~;
#X obj 477 693 - 100;
#X obj 477 717 s toRVU;
#X obj 1478 251 r toRVU, f 9;
#X obj 1413 251 r toLVU, f 9;
#X msg 1412 52 0.5;
#X obj 834 52 print note;
#X msg 971 211 0;
#X obj 994 236 vsl 15 128 0 1 0 0 empty empty empty 0 -9 0 10 -262144
-1 -1 0 1;
#X obj 962 236 vsl 15 128 0 10 0 0 empty empty empty 0 -9 0 10 -262144
-1 -1 0 1;
#X floatatom 994 375 5 0 0 0 - - -, f 5;
#X floatatom 956 375 5 0 0 0 - - -, f 5;
#X obj 971 423 *~;
#X text 860 396 Modulator, f 10;
#X text 1015 288 Depth;
#X text 732 276 Depth;
#X text 608 394 Modulator;
#X text 925 284 Rate;
#X text 637 280 Rate;
#X obj 928 397 osc~;
#X text 632 156 Frequency Modulation (FM);
#X text 908 160 Amplitude Modulation (AM);
#X obj 532 692 delwrite~ delayRight 4000;
#X obj 1485 578 vsl 15 128 0 2000 0 0 empty empty empty 0 -9 0 10 -262144
-1 -1 0 1;
#X obj 1416 578 vsl 15 128 0 2000 0 0 empty empty empty 0 -9 0 10 -262144
-1 -1 0 1;
#X obj 472 740 r rDelay;
#X obj 77 734 r lDelay;
#X floatatom 1407 715 5 0 0 0 - - -, f 5;
#X floatatom 1481 714 5 0 0 0 - - -, f 5;
#X obj 1407 735 s lDelay;
#X obj 1481 734 s rDelay;
#X obj 1439 530 r load;
#X msg 1447 552 0;
#X obj 77 756 delread~ delayLeft;
#X obj 471 762 delread~ delayRight;
#X text 1420 485 Stereo Delay;
#X text 1506 634 Delay amount in ms;
#X obj 13 689 delwrite~ delayLeft 4000;
#X obj 196 609 *~ 0.1;
#X obj 468 617 *~ 0.1;
#X obj 279 785 hip~;
#X obj 237 785 hip~;
#X obj 1277 578 vsl 15 128 0 100 0 0 empty empty empty 0 -9 0 10 -262144
-1 -1 12700 1;
#X floatatom 1277 714 5 0 0 0 - - -, f 5;
#X obj 970 190 r load;
#X obj 1271 530 r load;
#X msg 1274 552 0;
#X obj 1277 776 s hp;
#X obj 1185 577 vsl 15 128 0 100 0 0 empty empty empty 0 -9 0 10 -262144
-1 -1 0 1;
#X floatatom 1185 713 5 0 0 0 - - -, f 5;
#X obj 1179 529 r load;
#X obj 1185 775 s lp;
#X text 1219 489 Filters;
#X text 1136 626 LoPass;
#X text 1300 627 HiPass;
#X obj 266 748 r hp;
#X obj 208 846 lop~;
#X obj 289 838 lop~;
#X obj 247 811 r lop;
#X msg 1182 551 100;
#X obj 1277 734 mtof;
#X floatatom 1277 755 5 0 0 0 - - -, f 5;
#X obj 1185 733 mtof;
#X floatatom 1185 754 5 0 0 0 - - -, f 5;
#X obj 809 671 makenote 80 500;
#X obj 809 705 noteout;
#X obj 546 24 r MidiNumber;
#X obj 546 50 print midiNumber;
#X text 484 73 Prints the midinumber that was detected;
#X text 789 74 Prints the note that was detected;
#X connect 0 0 24 0;
#X connect 0 0 26 0;
#X connect 1 0 13 0;
#X connect 3 0 2 0;
#X connect 4 0 58 0;
#X connect 5 0 11 0;
#X connect 7 0 8 0;
#X connect 9 0 90 1;
#X connect 9 0 91 1;
#X connect 10 0 15 0;
#X connect 10 0 47 0;
#X connect 11 0 36 0;
#X connect 12 0 57 0;
#X connect 14 0 3 0;
#X connect 15 0 90 0;
#X connect 16 0 18 0;
#X connect 17 0 18 0;
#X connect 18 0 30 0;
#X connect 19 0 15 1;
#X connect 19 0 47 1;
#X connect 21 0 18 0;
#X connect 22 0 21 0;
#X connect 23 0 17 0;
#X connect 24 0 28 0;
#X connect 25 0 26 1;
#X connect 26 0 6 0;
#X connect 27 0 26 1;
#X connect 28 0 25 0;
#X connect 28 1 27 0;
#X connect 30 0 19 0;
#X connect 32 0 33 0;
#X connect 33 0 34 0;
#X connect 34 0 35 0;
#X connect 35 0 36 1;
#X connect 36 0 10 0;
#X connect 37 0 35 1;
#X connect 39 0 37 0;
#X connect 40 0 41 0;
#X connect 41 0 32 0;
#X connect 41 0 39 0;
#X connect 43 0 42 0;
#X connect 47 0 91 0;
#X connect 49 0 50 0;
#X connect 50 0 51 0;
#X connect 52 0 53 0;
#X connect 53 0 54 0;
#X connect 55 0 46 0;
#X connect 56 0 45 0;
#X connect 57 0 7 0;
#X connect 59 0 61 0;
#X connect 59 0 60 0;
#X connect 60 0 62 0;
#X connect 61 0 63 0;
#X connect 62 0 64 1;
#X connect 63 0 71 0;
#X connect 64 0 15 1;
#X connect 64 0 47 1;
#X connect 71 0 64 0;
#X connect 75 0 80 0;
#X connect 76 0 79 0;
#X connect 77 0 86 0;
#X connect 78 0 85 0;
#X connect 79 0 81 0;
#X connect 80 0 82 0;
#X connect 83 0 84 0;
#X connect 84 0 76 0;
#X connect 84 0 75 0;
#X connect 85 0 48 0;
#X connect 86 0 48 1;
#X connect 90 0 49 0;
#X connect 90 0 31 0;
#X connect 90 0 89 0;
#X connect 90 0 93 0;
#X connect 90 0 108 0;
#X connect 91 0 52 0;
#X connect 91 0 48 1;
#X connect 91 0 31 0;
#X connect 91 0 74 0;
#X connect 91 0 92 0;
#X connect 91 0 109 0;
#X connect 92 0 48 1;
#X connect 93 0 48 0;
#X connect 94 0 95 0;
#X connect 95 0 112 0;
#X connect 96 0 59 0;
#X connect 97 0 98 0;
#X connect 98 0 94 0;
#X connect 100 0 101 0;
#X connect 101 0 114 0;
#X connect 102 0 111 0;
#X connect 107 0 93 1;
#X connect 107 0 92 1;
#X connect 108 0 48 0;
#X connect 109 0 48 1;
#X connect 110 0 108 1;
#X connect 110 0 109 1;
#X connect 111 0 100 0;
#X connect 112 0 113 0;
#X connect 113 0 99 0;
#X connect 114 0 115 0;
#X connect 115 0 103 0;
#X connect 116 0 117 0;
#X connect 116 1 117 1;
#X connect 118 0 119 0;
