#N canvas 0 95 1920 985 10;
#X obj 612 192 adc~;
#X obj 611 241 sigmund~;
#X obj 611 324 > -1500;
#X floatatom 611 284 5 0 0 0 - - -, f 5;
#X obj 497 301 mtof;
#X floatatom 497 348 5 0 0 0 - - -, f 5;
#X obj 497 381 f;
#N canvas 118 117 1717 678 DetectPitch 1;
#X obj 32 21 inlet;
#X obj 1585 1493 outlet;
#X obj 32 44 s InputFreq;
#X obj 1585 1465 r OutputFreq;
#X obj 41 911 calcFreq;
#X obj 41 855 r InputFreq;
#X msg 62 884 130.813;
#X msg 41 938 C3;
#X obj 86 938 s OutputFreq;
#X obj 41 965 s CurrentNote;
#X obj 123 743 r InputFreq;
#X obj 168 826 s OutputFreq;
#X obj 123 853 s CurrentNote;
#X msg 144 772 138.591;
#X obj 123 799 calcFreq;
#X obj 221 858 r InputFreq;
#X obj 266 941 s OutputFreq;
#X obj 221 968 s CurrentNote;
#X obj 221 914 calcFreq;
#X msg 242 887 146.832;
#X msg 221 941 D3;
#X obj 306 747 r InputFreq;
#X obj 351 830 s OutputFreq;
#X obj 306 857 s CurrentNote;
#X obj 306 803 calcFreq;
#X msg 123 826 C#3;
#X msg 306 830 D#3;
#X msg 327 776 155.563;
#X obj 402 857 r InputFreq;
#X obj 447 940 s OutputFreq;
#X obj 402 967 s CurrentNote;
#X obj 402 913 calcFreq;
#X msg 423 886 164.814;
#X msg 402 940 E3;
#X obj 528 857 r InputFreq;
#X obj 573 940 s OutputFreq;
#X obj 528 967 s CurrentNote;
#X obj 528 913 calcFreq;
#X msg 528 940 F3;
#X msg 549 886 174.614;
#X obj 610 745 r InputFreq;
#X obj 655 828 s OutputFreq;
#X obj 610 855 s CurrentNote;
#X obj 610 801 calcFreq;
#X msg 610 828 F#3;
#X msg 631 774 184.997;
#X obj 702 856 r InputFreq;
#X obj 747 939 s OutputFreq;
#X obj 702 966 s CurrentNote;
#X obj 702 912 calcFreq;
#X msg 723 885 195.998;
#X msg 702 939 G3;
#X obj 781 744 r InputFreq;
#X obj 826 827 s OutputFreq;
#X obj 781 854 s CurrentNote;
#X obj 781 800 calcFreq;
#X msg 802 773 207.652;
#X msg 781 827 G#3;
#X obj 875 856 r InputFreq;
#X obj 920 939 s OutputFreq;
#X obj 875 966 s CurrentNote;
#X obj 875 912 calcFreq;
#X msg 896 885 220;
#X msg 875 939 A3;
#X obj 954 745 r InputFreq;
#X obj 999 828 s OutputFreq;
#X obj 954 855 s CurrentNote;
#X obj 954 801 calcFreq;
#X obj 1048 857 r InputFreq;
#X obj 1093 940 s OutputFreq;
#X obj 1048 967 s CurrentNote;
#X obj 1048 913 calcFreq;
#X msg 954 828 A#3;
#X msg 1048 940 B3;
#X msg 975 774 233.082;
#X msg 1069 886 246.942;
#X obj 44 662 calcFreq;
#X obj 44 606 r InputFreq;
#X obj 89 689 s OutputFreq;
#X obj 44 716 s CurrentNote;
#X obj 126 494 r InputFreq;
#X obj 171 577 s OutputFreq;
#X obj 126 604 s CurrentNote;
#X obj 126 550 calcFreq;
#X obj 224 609 r InputFreq;
#X obj 269 692 s OutputFreq;
#X obj 224 719 s CurrentNote;
#X obj 224 665 calcFreq;
#X obj 309 498 r InputFreq;
#X obj 354 581 s OutputFreq;
#X obj 309 608 s CurrentNote;
#X obj 309 554 calcFreq;
#X obj 405 608 r InputFreq;
#X obj 450 691 s OutputFreq;
#X obj 405 718 s CurrentNote;
#X obj 405 664 calcFreq;
#X obj 531 608 r InputFreq;
#X obj 576 691 s OutputFreq;
#X obj 531 718 s CurrentNote;
#X obj 531 664 calcFreq;
#X obj 613 496 r InputFreq;
#X obj 658 579 s OutputFreq;
#X obj 613 606 s CurrentNote;
#X obj 613 552 calcFreq;
#X obj 705 607 r InputFreq;
#X obj 750 690 s OutputFreq;
#X obj 705 717 s CurrentNote;
#X obj 705 663 calcFreq;
#X obj 784 495 r InputFreq;
#X obj 829 578 s OutputFreq;
#X obj 784 605 s CurrentNote;
#X obj 784 551 calcFreq;
#X obj 878 607 r InputFreq;
#X obj 923 690 s OutputFreq;
#X obj 878 717 s CurrentNote;
#X obj 878 663 calcFreq;
#X obj 957 496 r InputFreq;
#X obj 1002 579 s OutputFreq;
#X obj 957 606 s CurrentNote;
#X obj 957 552 calcFreq;
#X obj 1051 608 r InputFreq;
#X obj 1096 691 s OutputFreq;
#X obj 1051 718 s CurrentNote;
#X obj 1051 664 calcFreq;
#X msg 44 689 C4;
#X msg 224 692 D4;
#X msg 405 691 E4;
#X msg 531 691 F4;
#X msg 705 690 G4;
#X msg 878 690 A4;
#X msg 1051 691 B4;
#X msg 126 577 C#4;
#X msg 309 581 D#4;
#X msg 613 579 F#4;
#X msg 784 578 G#4;
#X msg 957 579 A#4;
#X msg 65 635 261.626;
#X msg 147 523 277.183;
#X msg 245 638 293.665;
#X msg 330 527 311.127;
#X msg 426 637 329.628;
#X msg 552 637 349.228;
#X msg 634 525 369.994;
#X msg 726 636 391.995;
#X msg 805 524 415.305;
#X msg 899 636 440;
#X msg 978 525 466.164;
#X msg 1072 637 493.883;
#X obj 48 1166 calcFreq;
#X obj 48 1110 r InputFreq;
#X obj 93 1193 s OutputFreq;
#X obj 48 1220 s CurrentNote;
#X obj 130 998 r InputFreq;
#X obj 175 1081 s OutputFreq;
#X obj 130 1108 s CurrentNote;
#X obj 130 1054 calcFreq;
#X obj 228 1113 r InputFreq;
#X obj 273 1196 s OutputFreq;
#X obj 228 1223 s CurrentNote;
#X obj 228 1169 calcFreq;
#X obj 313 1002 r InputFreq;
#X obj 358 1085 s OutputFreq;
#X obj 313 1112 s CurrentNote;
#X obj 313 1058 calcFreq;
#X obj 409 1112 r InputFreq;
#X obj 454 1195 s OutputFreq;
#X obj 409 1222 s CurrentNote;
#X obj 409 1168 calcFreq;
#X obj 535 1112 r InputFreq;
#X obj 580 1195 s OutputFreq;
#X obj 535 1222 s CurrentNote;
#X obj 535 1168 calcFreq;
#X obj 617 1000 r InputFreq;
#X obj 662 1083 s OutputFreq;
#X obj 617 1110 s CurrentNote;
#X obj 617 1056 calcFreq;
#X obj 709 1111 r InputFreq;
#X obj 754 1194 s OutputFreq;
#X obj 709 1221 s CurrentNote;
#X obj 709 1167 calcFreq;
#X obj 788 999 r InputFreq;
#X obj 833 1082 s OutputFreq;
#X obj 788 1109 s CurrentNote;
#X obj 788 1055 calcFreq;
#X obj 882 1111 r InputFreq;
#X obj 927 1194 s OutputFreq;
#X obj 882 1221 s CurrentNote;
#X obj 882 1167 calcFreq;
#X obj 961 1000 r InputFreq;
#X obj 1006 1083 s OutputFreq;
#X obj 961 1110 s CurrentNote;
#X obj 961 1056 calcFreq;
#X obj 1055 1112 r InputFreq;
#X obj 1100 1195 s OutputFreq;
#X obj 1055 1222 s CurrentNote;
#X obj 1055 1168 calcFreq;
#X msg 48 1193 C2;
#X msg 130 1081 C#2;
#X msg 228 1196 D2;
#X msg 313 1085 D#2;
#X msg 409 1195 E2;
#X msg 535 1195 F2;
#X msg 709 1194 G2;
#X msg 617 1083 F#2;
#X msg 788 1082 G#2;
#X msg 882 1194 A2;
#X msg 961 1083 A#2;
#X msg 1055 1195 B2;
#X msg 69 1139 65.4064;
#X msg 151 1027 69.2957;
#X msg 249 1142 73.4162;
#X msg 334 1031 77.7817;
#X msg 430 1141 82.4069;
#X msg 556 1141 87.3071;
#X msg 638 1029 92.4986;
#X msg 730 1140 97.9989;
#X msg 809 1028 103.826;
#X msg 903 1140 110;
#X msg 982 1029 116.541;
#X msg 1076 1141 123.471;
#X obj 47 1419 calcFreq;
#X obj 47 1363 r InputFreq;
#X obj 92 1446 s OutputFreq;
#X obj 47 1473 s CurrentNote;
#X obj 129 1251 r InputFreq;
#X obj 174 1334 s OutputFreq;
#X obj 129 1361 s CurrentNote;
#X obj 129 1307 calcFreq;
#X obj 227 1366 r InputFreq;
#X obj 272 1449 s OutputFreq;
#X obj 227 1476 s CurrentNote;
#X obj 227 1422 calcFreq;
#X obj 312 1255 r InputFreq;
#X obj 357 1338 s OutputFreq;
#X obj 312 1365 s CurrentNote;
#X obj 312 1311 calcFreq;
#X obj 408 1365 r InputFreq;
#X obj 453 1448 s OutputFreq;
#X obj 408 1475 s CurrentNote;
#X obj 408 1421 calcFreq;
#X obj 534 1365 r InputFreq;
#X obj 579 1448 s OutputFreq;
#X obj 534 1475 s CurrentNote;
#X obj 534 1421 calcFreq;
#X obj 616 1253 r InputFreq;
#X obj 661 1336 s OutputFreq;
#X obj 616 1363 s CurrentNote;
#X obj 616 1309 calcFreq;
#X obj 708 1364 r InputFreq;
#X obj 753 1447 s OutputFreq;
#X obj 708 1474 s CurrentNote;
#X obj 708 1420 calcFreq;
#X obj 787 1252 r InputFreq;
#X obj 832 1335 s OutputFreq;
#X obj 787 1362 s CurrentNote;
#X obj 787 1308 calcFreq;
#X obj 881 1364 r InputFreq;
#X obj 926 1447 s OutputFreq;
#X obj 881 1474 s CurrentNote;
#X obj 881 1420 calcFreq;
#X obj 960 1253 r InputFreq;
#X obj 1005 1336 s OutputFreq;
#X obj 960 1363 s CurrentNote;
#X obj 960 1309 calcFreq;
#X obj 1054 1365 r InputFreq;
#X obj 1099 1448 s OutputFreq;
#X obj 1054 1475 s CurrentNote;
#X obj 1054 1421 calcFreq;
#X msg 47 1446 C1;
#X msg 129 1334 C#1;
#X msg 227 1449 D1;
#X msg 312 1338 D#1;
#X msg 408 1448 E1;
#X msg 534 1448 F1;
#X msg 616 1336 F#1;
#X msg 708 1447 G1;
#X msg 787 1335 G#1;
#X msg 881 1447 A1;
#X msg 960 1336 A#1;
#X msg 1054 1448 B1;
#X msg 68 1392 32.7032;
#X msg 150 1280 34.6478;
#X msg 248 1395 36.7081;
#X msg 333 1284 38.8909;
#X msg 429 1394 41.2034;
#X msg 555 1394 43.6535;
#X msg 637 1282 46.2493;
#X msg 729 1393 48.9994;
#X msg 808 1281 51.9131;
#X msg 902 1393 55;
#X msg 981 1282 58.2705;
#X msg 1075 1394 61.7354;
#X obj 48 414 calcFreq;
#X obj 48 358 r InputFreq;
#X obj 93 441 s OutputFreq;
#X obj 48 468 s CurrentNote;
#X obj 130 246 r InputFreq;
#X obj 175 329 s OutputFreq;
#X obj 130 356 s CurrentNote;
#X obj 130 302 calcFreq;
#X obj 228 361 r InputFreq;
#X obj 273 444 s OutputFreq;
#X obj 228 471 s CurrentNote;
#X obj 228 417 calcFreq;
#X obj 313 250 r InputFreq;
#X obj 358 333 s OutputFreq;
#X obj 313 360 s CurrentNote;
#X obj 313 306 calcFreq;
#X obj 409 360 r InputFreq;
#X obj 454 443 s OutputFreq;
#X obj 409 470 s CurrentNote;
#X obj 409 416 calcFreq;
#X obj 535 360 r InputFreq;
#X obj 580 443 s OutputFreq;
#X obj 535 470 s CurrentNote;
#X obj 535 416 calcFreq;
#X obj 617 248 r InputFreq;
#X obj 662 331 s OutputFreq;
#X obj 617 358 s CurrentNote;
#X obj 617 304 calcFreq;
#X obj 709 359 r InputFreq;
#X obj 754 442 s OutputFreq;
#X obj 709 469 s CurrentNote;
#X obj 709 415 calcFreq;
#X obj 788 247 r InputFreq;
#X obj 833 330 s OutputFreq;
#X obj 788 357 s CurrentNote;
#X obj 788 303 calcFreq;
#X obj 882 359 r InputFreq;
#X obj 927 442 s OutputFreq;
#X obj 882 469 s CurrentNote;
#X obj 882 415 calcFreq;
#X obj 961 248 r InputFreq;
#X obj 1006 331 s OutputFreq;
#X obj 961 358 s CurrentNote;
#X obj 961 304 calcFreq;
#X obj 1055 360 r InputFreq;
#X obj 1100 443 s OutputFreq;
#X obj 1055 470 s CurrentNote;
#X obj 1055 416 calcFreq;
#X msg 48 441 C5;
#X msg 228 444 D5;
#X msg 409 443 E5;
#X msg 535 443 F5;
#X msg 709 442 G5;
#X msg 882 442 A5;
#X msg 1055 443 B5;
#X msg 130 329 C#5;
#X msg 313 333 D#5;
#X msg 617 331 F#5;
#X msg 788 330 G#5;
#X msg 961 331 A#5;
#X msg 69 387 523.251;
#X msg 151 275 554.365;
#X msg 249 390 587.33;
#X msg 334 279 622.254;
#X msg 430 389 659.255;
#X msg 556 389 698.456;
#X msg 638 277 739.989;
#X msg 730 388 783.991;
#X msg 809 276 830.609;
#X msg 903 388 880;
#X msg 982 277 932.328;
#X msg 1076 389 987.767;
#X connect 0 0 2 0;
#X connect 3 0 1 0;
#X connect 4 0 7 0;
#X connect 4 1 8 0;
#X connect 5 0 4 0;
#X connect 5 0 6 0;
#X connect 6 0 4 1;
#X connect 7 0 9 0;
#X connect 10 0 13 0;
#X connect 10 0 14 0;
#X connect 13 0 14 1;
#X connect 14 0 25 0;
#X connect 14 1 11 0;
#X connect 15 0 19 0;
#X connect 15 0 18 0;
#X connect 18 0 20 0;
#X connect 18 1 16 0;
#X connect 19 0 18 1;
#X connect 20 0 17 0;
#X connect 21 0 27 0;
#X connect 21 0 24 0;
#X connect 24 0 26 0;
#X connect 24 1 22 0;
#X connect 25 0 12 0;
#X connect 26 0 23 0;
#X connect 27 0 24 1;
#X connect 28 0 32 0;
#X connect 28 0 31 0;
#X connect 31 0 33 0;
#X connect 31 1 29 0;
#X connect 32 0 31 1;
#X connect 33 0 30 0;
#X connect 34 0 39 0;
#X connect 34 0 37 0;
#X connect 37 0 38 0;
#X connect 37 1 35 0;
#X connect 38 0 36 0;
#X connect 39 0 37 1;
#X connect 40 0 45 0;
#X connect 40 0 43 0;
#X connect 43 0 44 0;
#X connect 43 1 41 0;
#X connect 44 0 42 0;
#X connect 45 0 43 1;
#X connect 46 0 50 0;
#X connect 46 0 49 0;
#X connect 49 0 51 0;
#X connect 49 1 47 0;
#X connect 50 0 49 1;
#X connect 51 0 48 0;
#X connect 52 0 56 0;
#X connect 52 0 55 0;
#X connect 55 0 57 0;
#X connect 55 1 53 0;
#X connect 56 0 55 1;
#X connect 57 0 54 0;
#X connect 58 0 62 0;
#X connect 58 0 61 0;
#X connect 61 0 63 0;
#X connect 61 1 59 0;
#X connect 62 0 61 1;
#X connect 63 0 60 0;
#X connect 64 0 74 0;
#X connect 64 0 67 0;
#X connect 67 0 72 0;
#X connect 67 1 65 0;
#X connect 68 0 75 0;
#X connect 68 0 71 0;
#X connect 71 0 73 0;
#X connect 71 1 69 0;
#X connect 72 0 66 0;
#X connect 73 0 70 0;
#X connect 74 0 67 1;
#X connect 75 0 71 1;
#X connect 76 0 124 0;
#X connect 76 1 78 0;
#X connect 77 0 76 0;
#X connect 77 0 136 0;
#X connect 80 0 137 0;
#X connect 80 0 83 0;
#X connect 83 0 131 0;
#X connect 83 1 81 0;
#X connect 84 0 138 0;
#X connect 84 0 87 0;
#X connect 87 0 125 0;
#X connect 87 1 85 0;
#X connect 88 0 139 0;
#X connect 88 0 91 0;
#X connect 91 0 132 0;
#X connect 91 1 89 0;
#X connect 92 0 140 0;
#X connect 92 0 95 0;
#X connect 95 0 126 0;
#X connect 95 1 93 0;
#X connect 96 0 141 0;
#X connect 96 0 99 0;
#X connect 99 0 127 0;
#X connect 99 1 97 0;
#X connect 100 0 142 0;
#X connect 100 0 103 0;
#X connect 103 0 133 0;
#X connect 103 1 101 0;
#X connect 104 0 143 0;
#X connect 104 0 107 0;
#X connect 107 0 128 0;
#X connect 107 1 105 0;
#X connect 108 0 144 0;
#X connect 108 0 111 0;
#X connect 111 0 134 0;
#X connect 111 1 109 0;
#X connect 112 0 145 0;
#X connect 112 0 115 0;
#X connect 115 0 129 0;
#X connect 115 1 113 0;
#X connect 116 0 146 0;
#X connect 116 0 119 0;
#X connect 119 0 135 0;
#X connect 119 1 117 0;
#X connect 120 0 147 0;
#X connect 120 0 123 0;
#X connect 123 0 130 0;
#X connect 123 1 121 0;
#X connect 124 0 79 0;
#X connect 125 0 86 0;
#X connect 126 0 94 0;
#X connect 127 0 98 0;
#X connect 128 0 106 0;
#X connect 129 0 114 0;
#X connect 130 0 122 0;
#X connect 131 0 82 0;
#X connect 132 0 90 0;
#X connect 133 0 102 0;
#X connect 134 0 110 0;
#X connect 135 0 118 0;
#X connect 136 0 76 1;
#X connect 137 0 83 1;
#X connect 138 0 87 1;
#X connect 139 0 91 1;
#X connect 140 0 95 1;
#X connect 141 0 99 1;
#X connect 142 0 103 1;
#X connect 143 0 107 1;
#X connect 144 0 111 1;
#X connect 145 0 115 1;
#X connect 146 0 119 1;
#X connect 147 0 123 1;
#X connect 148 0 196 0;
#X connect 148 1 150 0;
#X connect 149 0 148 0;
#X connect 149 0 208 0;
#X connect 152 0 209 0;
#X connect 152 0 155 0;
#X connect 155 0 197 0;
#X connect 155 1 153 0;
#X connect 156 0 210 0;
#X connect 156 0 159 0;
#X connect 159 0 198 0;
#X connect 159 1 157 0;
#X connect 160 0 211 0;
#X connect 160 0 163 0;
#X connect 163 0 199 0;
#X connect 163 1 161 0;
#X connect 164 0 212 0;
#X connect 164 0 167 0;
#X connect 167 0 200 0;
#X connect 167 1 165 0;
#X connect 168 0 213 0;
#X connect 168 0 171 0;
#X connect 171 0 201 0;
#X connect 171 1 169 0;
#X connect 172 0 214 0;
#X connect 172 0 175 0;
#X connect 175 0 203 0;
#X connect 175 1 173 0;
#X connect 176 0 215 0;
#X connect 176 0 179 0;
#X connect 179 0 202 0;
#X connect 179 1 177 0;
#X connect 180 0 216 0;
#X connect 180 0 183 0;
#X connect 183 0 204 0;
#X connect 183 1 181 0;
#X connect 184 0 217 0;
#X connect 184 0 187 0;
#X connect 187 0 205 0;
#X connect 187 1 185 0;
#X connect 188 0 218 0;
#X connect 188 0 191 0;
#X connect 191 0 206 0;
#X connect 191 1 189 0;
#X connect 192 0 219 0;
#X connect 192 0 195 0;
#X connect 195 0 207 0;
#X connect 195 1 193 0;
#X connect 196 0 151 0;
#X connect 197 0 154 0;
#X connect 198 0 158 0;
#X connect 199 0 162 0;
#X connect 200 0 166 0;
#X connect 201 0 170 0;
#X connect 202 0 178 0;
#X connect 203 0 174 0;
#X connect 204 0 182 0;
#X connect 205 0 186 0;
#X connect 206 0 190 0;
#X connect 207 0 194 0;
#X connect 208 0 148 1;
#X connect 209 0 155 1;
#X connect 210 0 159 1;
#X connect 211 0 163 1;
#X connect 212 0 167 1;
#X connect 213 0 171 1;
#X connect 214 0 175 1;
#X connect 215 0 179 1;
#X connect 216 0 183 1;
#X connect 217 0 187 1;
#X connect 218 0 191 1;
#X connect 219 0 195 1;
#X connect 220 0 268 0;
#X connect 220 1 222 0;
#X connect 221 0 220 0;
#X connect 221 0 280 0;
#X connect 224 0 281 0;
#X connect 224 0 227 0;
#X connect 227 0 269 0;
#X connect 227 1 225 0;
#X connect 228 0 282 0;
#X connect 228 0 231 0;
#X connect 231 0 270 0;
#X connect 231 1 229 0;
#X connect 232 0 283 0;
#X connect 232 0 235 0;
#X connect 235 0 271 0;
#X connect 235 1 233 0;
#X connect 236 0 284 0;
#X connect 236 0 239 0;
#X connect 239 0 272 0;
#X connect 239 1 237 0;
#X connect 240 0 285 0;
#X connect 240 0 243 0;
#X connect 243 0 273 0;
#X connect 243 1 241 0;
#X connect 244 0 286 0;
#X connect 244 0 247 0;
#X connect 247 0 274 0;
#X connect 247 1 245 0;
#X connect 248 0 287 0;
#X connect 248 0 251 0;
#X connect 251 0 275 0;
#X connect 251 1 249 0;
#X connect 252 0 288 0;
#X connect 252 0 255 0;
#X connect 255 0 276 0;
#X connect 255 1 253 0;
#X connect 256 0 289 0;
#X connect 256 0 259 0;
#X connect 259 0 277 0;
#X connect 259 1 257 0;
#X connect 260 0 290 0;
#X connect 260 0 263 0;
#X connect 263 0 278 0;
#X connect 263 1 261 0;
#X connect 264 0 291 0;
#X connect 264 0 267 0;
#X connect 267 0 279 0;
#X connect 267 1 265 0;
#X connect 268 0 223 0;
#X connect 269 0 226 0;
#X connect 270 0 230 0;
#X connect 271 0 234 0;
#X connect 272 0 238 0;
#X connect 273 0 242 0;
#X connect 274 0 246 0;
#X connect 275 0 250 0;
#X connect 276 0 254 0;
#X connect 277 0 258 0;
#X connect 278 0 262 0;
#X connect 279 0 266 0;
#X connect 280 0 220 1;
#X connect 281 0 227 1;
#X connect 282 0 231 1;
#X connect 283 0 235 1;
#X connect 284 0 239 1;
#X connect 285 0 243 1;
#X connect 286 0 247 1;
#X connect 287 0 251 1;
#X connect 288 0 255 1;
#X connect 289 0 259 1;
#X connect 290 0 263 1;
#X connect 291 0 267 1;
#X connect 292 0 340 0;
#X connect 292 1 294 0;
#X connect 293 0 292 0;
#X connect 293 0 352 0;
#X connect 296 0 353 0;
#X connect 296 0 299 0;
#X connect 299 0 347 0;
#X connect 299 1 297 0;
#X connect 300 0 354 0;
#X connect 300 0 303 0;
#X connect 303 0 341 0;
#X connect 303 1 301 0;
#X connect 304 0 355 0;
#X connect 304 0 307 0;
#X connect 307 0 348 0;
#X connect 307 1 305 0;
#X connect 308 0 356 0;
#X connect 308 0 311 0;
#X connect 311 0 342 0;
#X connect 311 1 309 0;
#X connect 312 0 357 0;
#X connect 312 0 315 0;
#X connect 315 0 343 0;
#X connect 315 1 313 0;
#X connect 316 0 358 0;
#X connect 316 0 319 0;
#X connect 319 0 349 0;
#X connect 319 1 317 0;
#X connect 320 0 359 0;
#X connect 320 0 323 0;
#X connect 323 0 344 0;
#X connect 323 1 321 0;
#X connect 324 0 360 0;
#X connect 324 0 327 0;
#X connect 327 0 350 0;
#X connect 327 1 325 0;
#X connect 328 0 361 0;
#X connect 328 0 331 0;
#X connect 331 0 345 0;
#X connect 331 1 329 0;
#X connect 332 0 362 0;
#X connect 332 0 335 0;
#X connect 335 0 351 0;
#X connect 335 1 333 0;
#X connect 336 0 363 0;
#X connect 336 0 339 0;
#X connect 339 0 346 0;
#X connect 339 1 337 0;
#X connect 340 0 295 0;
#X connect 341 0 302 0;
#X connect 342 0 310 0;
#X connect 343 0 314 0;
#X connect 344 0 322 0;
#X connect 345 0 330 0;
#X connect 346 0 338 0;
#X connect 347 0 298 0;
#X connect 348 0 306 0;
#X connect 349 0 318 0;
#X connect 350 0 326 0;
#X connect 351 0 334 0;
#X connect 352 0 292 1;
#X connect 353 0 299 1;
#X connect 354 0 303 1;
#X connect 355 0 307 1;
#X connect 356 0 311 1;
#X connect 357 0 315 1;
#X connect 358 0 319 1;
#X connect 359 0 323 1;
#X connect 360 0 327 1;
#X connect 361 0 331 1;
#X connect 362 0 335 1;
#X connect 363 0 339 1;
#X restore 497 417 pd DetectPitch;
#X obj 858 436 r CurrentNote;
#X obj 858 463 print;
#X obj 814 161 loadbang;
#X obj 814 220 s Tolerance;
#X msg 814 189 7;
#X connect 0 0 1 0;
#X connect 1 0 3 0;
#X connect 1 0 4 0;
#X connect 3 0 2 0;
#X connect 4 0 5 0;
#X connect 5 0 6 0;
#X connect 6 0 7 0;
#X connect 8 0 9 0;
#X connect 10 0 12 0;
#X connect 12 0 11 0;
